<?xml version="1.0" encoding="UTF-8" standalone="no"?>
<!-- Created with Inkscape (http://www.inkscape.org/) -->

<svg
   xmlns:dc="http://purl.org/dc/elements/1.1/"
   xmlns:cc="http://creativecommons.org/ns#"
   xmlns:rdf="http://www.w3.org/1999/02/22-rdf-syntax-ns#"
   xmlns:svg="http://www.w3.org/2000/svg"
   xmlns="http://www.w3.org/2000/svg"
   xmlns:sodipodi="http://sodipodi.sourceforge.net/DTD/sodipodi-0.dtd"
   xmlns:inkscape="http://www.inkscape.org/namespaces/inkscape"
   version="1.0"
   width="1008"
   height="504"
   id="svg2"
   inkscape:version="0.48.4 r9939"
   sodipodi:docname="bishop.svg">
  <sodipodi:namedview
     pagecolor="#ffffff"
     bordercolor="#666666"
     borderopacity="1"
     objecttolerance="10"
     gridtolerance="10"
     guidetolerance="10"
     inkscape:pageopacity="0"
     inkscape:pageshadow="2"
     inkscape:window-width="1920"
     inkscape:window-height="1057"
     id="namedview3023"
     showgrid="false"
     inkscape:zoom="1"
     inkscape:cx="200"
     inkscape:cy="292.06931"
     inkscape:window-x="1912"
     inkscape:window-y="-8"
     inkscape:window-maximized="1"
     inkscape:current-layer="g2438" />
  <defs
     id="defs4">
    <marker
       inkscape:stockid="Arrow1Lend"
       orient="auto"
       refY="0.0"
       refX="0.0"
       id="Arrow1Lend"
       style="overflow:visible;">
      <path
         id="path3849"
         d="M 0.0,0.0 L 5.0,-5.0 L -12.5,0.0 L 5.0,5.0 L 0.0,0.0 z "
         style="fill-rule:evenodd;stroke:#000000;stroke-width:1.0pt;"
         transform="scale(0.8) rotate(180) translate(12.5,0)" />
    </marker>
    <marker
       inkscape:stockid="Arrow1Lstart"
       orient="auto"
       refY="0.0"
       refX="0.0"
       id="Arrow1Lstart"
       style="overflow:visible">
      <path
         id="path3846"
         d="M 0.0,0.0 L 5.0,-5.0 L -12.5,0.0 L 5.0,5.0 L 0.0,0.0 z "
         style="fill-rule:evenodd;stroke:#000000;stroke-width:1.0pt"
         transform="scale(0.8) translate(12.5,0)" />
    </marker>
  </defs>
  <g
     id="layer1">
    <g
       transform="translate(-47.631392,-584.71365)"
       id="g2438">
      <path
         d="m 360.4667,1042.7879 c -9.546,-9.4875 -17.60658,-18.2432 -17.91241,-19.4571 -1.0662,-4.232 1.20574,-7.6998 9.35856,-14.2845 15.86131,-12.81067 33.96384,-21.92268 53.78068,-27.07083 17.31636,-4.49857 25.90945,-5.19263 55,-4.44226 34.27403,0.88409 48.69439,-1.00482 59.90047,-7.84628 l 3.90047,-2.3813 -7.90047,-1.71887 c -13.38834,-2.91285 -31.39993,-9.35244 -44.44317,-15.88955 -17.97503,-9.00885 -17.34898,-6.1891 -8.86328,-39.92068 3.76875,-14.98123 6.85465,-27.68861 6.85757,-28.23861 0.003,-0.55001 -2.48907,-2.78724 -5.53773,-4.97164 -14.78957,-10.59697 -26.22112,-27.83693 -31.62362,-47.69173 -1.82596,-6.71066 -2.25219,-10.77462 -2.1853,-20.83663 0.0996,-14.98186 2.20943,-23.91331 8.89625,-37.65983 10.54217,-21.67226 24.6972,-35.68729 63.99881,-63.3659 13.42058,-9.45161 24.47627,-17.57419 32.24782,-23.69243 1.33929,-1.05436 0.86291,-1.86113 -3.54287,-6 -7.28931,-6.84773 -10.68991,-14.57265 -10.6984,-24.30287 -0.0117,-13.44493 7.41109,-24.61785 20.49345,-30.84702 7.78595,-3.7073 18.21402,-3.7073 26,0 8.15082,3.88102 13.44958,9.00455 17.20799,16.639 6.53384,13.27206 3.68187,28.0882 -7.41296,38.51089 -4.40575,4.13887 -4.88214,4.94564 -3.54287,6 7.77155,6.11824 18.82724,14.24082 32.24784,23.69243 39.3016,27.67861 53.45662,41.69364 63.9988,63.3659 6.68681,13.74652 8.79666,22.67796 8.89626,37.65983 0.0669,10.06202 -0.35935,14.12597 -2.18531,20.83663 -5.40249,19.8548 -16.83403,37.09476 -31.62363,47.69173 -3.04865,2.1844 -5.54062,4.42164 -5.53771,4.97164 0.003,0.54999 3.08882,13.25737 6.85757,28.23861 8.4857,33.73159 9.11174,30.91182 -8.86328,39.92068 -13.04326,6.53712 -31.05483,12.9767 -44.44318,15.88955 l -7.90045,1.71887 3.90045,2.38129 c 11.20608,6.84147 25.62642,8.73037 59.90048,7.84629 29.09052,-0.75036 37.68363,-0.0563 55,4.44226 19.94982,5.18276 37.63584,14.11865 53.98602,27.27683 6.78501,5.4603 8.54576,7.4381 9.05944,10.1763 0.35069,1.8693 0.18027,4.2336 -0.37869,5.254 -0.55897,1.0204 -8.61762,9.3928 -17.90814,18.6053 -11.79395,11.6949 -17.57061,16.75 -19.14097,16.75 -2.87741,0 -4.66793,-0.9844 -12.34557,-6.7873 -7.86826,-5.947 -20.05368,-12.3173 -29.78611,-15.5715 -11.03019,-3.6881 -25.41947,-5.4425 -53.98598,-6.582 -35.80721,-1.4284 -51.48678,-4.5691 -69.7031,-13.9618 l -9.2969,-4.7937 -9.29692,4.7937 c -18.21632,9.3927 -33.89588,12.5334 -69.70308,13.9618 -28.56654,1.1395 -42.9558,2.8939 -53.98599,6.582 -9.73243,3.2542 -21.91785,9.6245 -29.78612,15.5715 -7.67853,5.8036 -9.46806,6.7873 -12.34738,6.7873 -1.57684,0 -7.44884,-5.166 -19.60734,-17.25 l 0,0 z"
         id="path2437"
         style="fill:#000000;fill-opacity:1"
         inkscape:connector-curvature="0" />
      <path
         d="m 494.92786,862.60485 c 37.33243,-11.70609 74.27578,-12.53951 112.0098,-2.52686 6.18428,1.64098 13.72718,3.91264 16.76201,5.04812 l 5.51791,2.0645 4.80551,-3.52759 c 26.65484,-19.56645 35.59324,-55.44553 21.21387,-85.1533 -9.39473,-19.40948 -23.86209,-33.07901 -66.64715,-62.9718 -7.08486,-4.95 -17.49738,-12.69526 -23.13892,-17.21168 l -10.25736,-8.21168 -10.25737,8.21168 c -5.64154,4.51642 -16.05405,12.26168 -23.13892,17.21168 -42.78505,29.89279 -57.25241,43.56232 -66.64714,62.9718 -12.13582,25.07256 -7.911,54.89443 10.71026,75.60068 5.50955,6.12645 14.58022,13.06977 16.33317,12.50253 0.82499,-0.26698 6.55545,-2.0706 12.73433,-4.00808 z"
         id="path2612"
         style="fill:#ffffff"
         inkscape:connector-curvature="0" />
      <path
         d="m 487.92513,916.08413 c 9.39394,-3.82807 26.29689,-8.57163 38.2684,-10.73945 13.20834,-2.39179 44.80091,-2.39081 58,0.002 12.45291,2.25733 26.38478,6.14598 37.32908,10.41924 4.856,1.89606 9.03128,3.24518 9.2784,2.99806 0.24711,-0.24714 -1.47598,-8.20791 -3.82909,-17.69063 -4.95139,-19.95336 -3.47986,-18.27254 -20.0775,-22.93308 -17.92979,-5.03459 -29.98799,-6.56597 -51.70089,-6.56597 -21.71293,10e-6 -33.77112,1.53138 -51.70089,6.56597 -16.53026,4.64161 -15.19557,3.18319 -19.72033,21.54847 -2.14773,8.71717 -4.10903,16.63688 -4.35848,17.59938 -0.60456,2.33256 0.066,2.23774 8.51131,-1.20378 l -10e-6,-10e-6 z"
         id="path2610"
         style="fill:#ffffff"
         inkscape:connector-curvature="0" />
      <path
         d="m 588.80596,948.59546 c 11.98111,-2.48939 26.66659,-7.13265 33.32753,-10.5375 l 3.43996,-1.7584 -4.74158,-2.09742 c -8.41345,-3.72167 -25.87194,-8.92562 -36.13834,-10.77196 -13.96605,-2.51169 -45.03397,-2.5117 -59,0 -10.26643,1.84635 -27.72489,7.05029 -36.13836,10.77197 l -4.74156,2.09741 3.43995,1.75839 c 9.84408,5.03198 31.5765,10.96582 47.58618,12.99297 12.59487,1.59477 39.46913,0.34891 52.96623,-2.45547 l -10e-6,10e-6 z"
         id="path2608"
         style="fill:#ffffff"
         inkscape:connector-curvature="0" />
      <path
         d="m 387.34304,1035.3938 c 7.90076,-5.381 24.14041,-12.895 34.0395,-15.7498 13.1673,-3.7974 26.76916,-5.4265 54.81099,-6.5648 14.02498,-0.5692 28.425,-1.5025 32,-2.0738 15.15643,-2.4222 28.82026,-7.6472 39.92242,-15.26598 5.56713,-3.82039 8.58803,-3.8204 14.15516,0 11.10216,7.61878 24.76598,12.84378 39.92242,15.26598 3.57499,0.5713 17.97499,1.5046 32,2.0738 28.04182,1.1383 41.64369,2.7674 54.81098,6.5648 9.93812,2.8661 26.14512,10.3735 34.12483,15.8072 l 5.43584,3.7015 8.92209,-8.9221 8.92211,-8.9221 -8.47445,-5.6387 c -13.41896,-8.9287 -26.8021,-14.5784 -43.2414,-18.25458 -6.84965,-1.5317 -13.3923,-1.8044 -45.5,-1.8965 -37.25771,-0.10691 -37.56351,-0.1247 -47.32694,-2.7561 -5.40483,-1.45671 -12.32441,-3.7919 -15.3769,-5.1894 -6.41843,-2.93844 -16.48296,-9.9449 -20.73325,-14.43352 -2.78494,-2.94112 -3.33211,-3.10178 -10.56291,-3.10178 -7.23082,-10e-6 -7.77796,0.16067 -10.56291,3.10178 -4.25029,4.48861 -14.31481,11.49507 -20.73326,14.43352 -3.05249,1.39751 -9.97208,3.7327 -15.37689,5.1894 -9.76345,2.63139 -10.06926,2.6492 -47.32694,2.7561 -32.10772,0.0921 -38.65036,0.3648 -45.5,1.8965 -16.30381,3.64588 -29.30074,9.10758 -43.14169,18.12958 l -8.66337,5.6471 8.88168,8.923 c 4.88493,4.9076 8.95834,8.923 9.05204,8.923 0.0937,0 2.57808,-1.6398 5.52085,-3.6441 z"
         id="path2606"
         style="fill:#ffffff"
         inkscape:connector-curvature="0" />
      <path
         d="m 563.27184,666.76412 c 10.63999,-7.17029 10.63999,-20.28211 0,-27.4524 -9.81276,-6.61282 -24.07831,1.51947 -24.07831,13.7262 -10e-6,12.20673 14.26555,20.33902 24.07831,13.7262 l 0,0 z"
         id="path2616"
         style="fill:#ffffff"
         inkscape:connector-curvature="0" />
      <path
         style="fill:none;stroke:#000000;stroke-width:12.19999981;stroke-linecap:butt;stroke-linejoin:miter;stroke-miterlimit:4;stroke-opacity:1;stroke-dasharray:none"
         d="m 562.63139,734.71365 -30,48 36,-5 -24,45"
         id="path3824"
         inkscape:connector-curvature="0"
         sodipodi:nodetypes="cccc" />
      <path
         style="fill:#000000;fill-opacity:1;stroke-width:2;stroke-miterlimit:4;stroke-dasharray:none"
         id="path4886"
         d="m 496.19623,216.76494 c 1.35914,2.78473 2.73501,5.5672 3.75497,8.49706 0.76368,2.19887 0.86396,4.51866 1.08322,6.81086 0.3591,2.24107 0.55436,4.50336 1.01665,6.72632 0.073,0.34981 0.14593,0.69962 0.2189,1.04943 0,0 -9.74356,9.82765 -9.74356,9.82765 l 0,0 c -0.0683,-0.34684 -0.13656,-0.69367 -0.20485,-1.04051 -0.50049,-2.25514 -0.74245,-4.52885 -1.09015,-6.81264 -0.36235,-2.20811 -0.21149,-4.48853 -0.87794,-6.65418 -0.87658,-2.8821 -2.17967,-5.60434 -3.59276,-8.25923 0,0 9.43552,-10.14476 9.43552,-10.14476 z"
         inkscape:connector-curvature="0"
         transform="translate(47.631392,584.71365)" />
      <path
         style="fill:#000000;fill-opacity:1;stroke-width:2;stroke-miterlimit:4;stroke-dasharray:none"
         id="path4894"
         d="m 515.5164,232.41495 c -2.88642,2.12495 -5.83567,4.11869 -8.88595,5.9998 -2.99935,1.62495 -5.52339,3.94545 -8.39289,5.74986 -1.77994,0.98533 -3.47811,2.04708 -5.27321,3.01387 -1.1339,0.72869 -0.60763,0.31838 -1.58138,1.22762 0,0 7.55699,-11.60267 7.55699,-11.60267 l 0,0 c 1.16286,-0.77449 0.56625,-0.40847 1.79025,-1.09737 1.76308,-0.92972 3.37983,-2.0991 5.1351,-3.04562 2.75852,-1.92988 5.45151,-3.95064 8.37084,-5.64359 3.05122,-1.90977 6.00274,-3.98446 8.81204,-6.23562 0,0 -7.53179,11.63372 -7.53179,11.63372 z"
         inkscape:connector-curvature="0"
         transform="translate(47.631392,584.71365)" />
    </g>
  </g>
  <metadata
     id="metadata3021">
    <rdf:RDF>
      <cc:Work>
        <dc:format>image/svg+xml</dc:format>
        <dc:type
           rdf:resource="http://purl.org/dc/dcmitype/StillImage" />
        <cc:license
           rdf:resource="http://creativecommons.org/licenses/publicdomain/" />
        <dc:publisher>
          <cc:Agent
             rdf:about="http://openclipart.org/">
            <dc:title>Open Clip Art Library</dc:title>
          </cc:Agent>
        </dc:publisher>
        <dc:title />
        <dc:date>2008-08-26T09:30:42</dc:date>
        <dc:description>A light and dark (black and white) bishop for use in chess board templates.</dc:description>
        <dc:source>http://openclipart.org/detail/18672/chess-tile---bishop-by-portablejim</dc:source>
        <dc:creator>
          <cc:Agent>
            <dc:title>portablejim</dc:title>
          </cc:Agent>
        </dc:creator>
        <dc:subject>
          <rdf:Bag>
            <rdf:li>bishop</rdf:li>
            <rdf:li>bishop</rdf:li>
            <rdf:li>black</rdf:li>
            <rdf:li>black</rdf:li>
            <rdf:li>chess</rdf:li>
            <rdf:li>chess</rdf:li>
            <rdf:li>clip art</rdf:li>
            <rdf:li>clipart</rdf:li>
            <rdf:li>externalsource</rdf:li>
            <rdf:li>game</rdf:li>
            <rdf:li>game</rdf:li>
            <rdf:li>icon</rdf:li>
            <rdf:li>icon</rdf:li>
            <rdf:li>image</rdf:li>
            <rdf:li>media</rdf:li>
            <rdf:li>png</rdf:li>
            <rdf:li>public domain</rdf:li>
            <rdf:li>svg</rdf:li>
            <rdf:li>white</rdf:li>
            <rdf:li>white</rdf:li>
          </rdf:Bag>
        </dc:subject>
      </cc:Work>
      <cc:License
         rdf:about="http://creativecommons.org/licenses/publicdomain/">
        <cc:permits
           rdf:resource="http://creativecommons.org/ns#Reproduction" />
        <cc:permits
           rdf:resource="http://creativecommons.org/ns#Distribution" />
        <cc:permits
           rdf:resource="http://creativecommons.org/ns#DerivativeWorks" />
      </cc:License>
    </rdf:RDF>
  </metadata>
</svg>
